
    <svg 
      xmlns="http://www.w3.org/2000/svg" 
      width="93"
      height="93"
    >
      <!-- BACKGROUND -->
      <rect 
        width="93"
        height="93"
        fill="black"  
      />
      
      <!-- SQUARES -->
      
                <rect 
                  x="6" 
                  y="6" 
                  width="25"
                  height="25"
                  fill="#ffff45"
                />
              
                <rect 
                  x="34" 
                  y="6" 
                  width="25"
                  height="25"
                  fill="#ffff45"
                />
              
                <rect 
                  x="62" 
                  y="6" 
                  width="25"
                  height="25"
                  fill="#ffff45"
                />
              
                <rect 
                  x="6" 
                  y="34" 
                  width="25"
                  height="25"
                  fill="#ffff45"
                />
              
                <rect 
                  x="34" 
                  y="34" 
                  width="25"
                  height="25"
                  fill="#ffff45"
                />
              
                <rect 
                  x="62" 
                  y="34" 
                  width="25"
                  height="25"
                  fill="#ffff45"
                />
              
                <rect 
                  x="6" 
                  y="62" 
                  width="25"
                  height="25"
                  fill="#ffff45"
                />
              
                <rect 
                  x="34" 
                  y="62" 
                  width="25"
                  height="25"
                  fill="#ffff45"
                />
              
                <rect 
                  x="62" 
                  y="62" 
                  width="25"
                  height="25"
                  fill="#ffff45"
                />
              
      
          
      <!-- STRIKES -->
      
      
      <!-- LINES -->
      
          <polyline 
          points=" 18.5,18.5 74.5,18.5 74.5,74.5 18.5,18.5"
          fill="none" 
          stroke="cornflowerblue"
          stroke-width="3"
          />
        
      
      <!-- MARKERS -->
      
                <polygon 
                  points=" 67,11 74.5,18.5 67,26 67,11"
                  fill="#FF5722" 
                  transform="rotate(0 74.5 18.5) translate(5)"
                />
              
                <polygon 
                  points=" 67,67 74.5,74.5 67,82 67,67"
                  fill="#FF5722" 
                  transform="rotate(90 74.5 74.5) translate(5)"
                />
              
                <polygon 
                  points=" 11,11 18.5,18.5 11,26 11,11"
                  fill="#FF5722" 
                  transform="rotate(-135 18.5 18.5) translate(5)"
                />
              
    </svg>
  