
    <svg 
      xmlns="http://www.w3.org/2000/svg" 
      width="93"
      height="93"
    >
      <!-- BACKGROUND -->
      <rect 
        width="93"
        height="93"
        fill="black"  
      />
      
      <!-- SQUARES -->
      
                <rect 
                  x="6" 
                  y="6" 
                  width="25"
                  height="25"
                  fill="#ffff45"
                />
              
                <rect 
                  x="34" 
                  y="6" 
                  width="25"
                  height="25"
                  fill="#ffff45"
                />
              
                <rect 
                  x="62" 
                  y="6" 
                  width="25"
                  height="25"
                  fill="#ffff45"
                />
              
                <rect 
                  x="6" 
                  y="34" 
                  width="25"
                  height="25"
                  fill="#ffff45"
                />
              
                <rect 
                  x="34" 
                  y="34" 
                  width="25"
                  height="25"
                  fill="#ffff45"
                />
              
                <rect 
                  x="62" 
                  y="34" 
                  width="25"
                  height="25"
                  fill="#ffff45"
                />
              
                <rect 
                  x="6" 
                  y="62" 
                  width="25"
                  height="25"
                  fill="#ffff45"
                />
              
                <rect 
                  x="34" 
                  y="62" 
                  width="25"
                  height="25"
                  fill="#ffff45"
                />
              
                <rect 
                  x="62" 
                  y="62" 
                  width="25"
                  height="25"
                  fill="#ffff45"
                />
              
      
          
      <!-- STRIKES -->
      
      
      <!-- LINES -->
      
          <polyline 
          points=" 18.5,18.5 18.5,74.5 74.5,18.5 18.5,18.5" 
          fill="none" 
          stroke="orange" 
          stroke-width="3"
          />
        
      
      <!-- MARKERS -->
      
                <polygon 
                  points=" 12.25,68.25 18.5,74.5 12.25,80.75"
                  fill="red" 
                  transform="
                  translate(18.5 74.5) 
                  rotate(90 0 0) 
                  translate(-18.5 -74.5)"
                />
              
                <polygon 
                  points=" 68.25,12.25 74.5,18.5 68.25,24.75"
                  fill="red" 
                  transform="
                  translate(74.5 18.5) 
                  rotate(-45 0 0) 
                  translate(-74.5 -18.5)"
                />
              
                <polygon 
                  points=" 12.25,12.25 18.5,18.5 12.25,24.75"
                  fill="red" 
                  transform="
                  translate(18.5 18.5) 
                  rotate(180 0 0) 
                  translate(-18.5 -18.5)"
                />
              
    </svg>
  