<?xml version="1.0" encoding="UTF-8"?>
    <svg
      xmlns="http://www.w3.org/2000/svg"
      width="330"
      height="330"
    >
      <!-- border -->
     <rect
       width="330"
       height="330"
       stroke="black"
       stroke-width="20"
     />

     <!-- SQUARES -->

     <!-- TOP ROW -->
     <rect
       x="15"
       y="15"
       width="100"
       height="100"
       fill="gray"
       stroke="black"
       stroke-width="10"
     />
     <rect
       x="115"
       y="15"
       width="100"
       height="100"
       fill="yellow"
       stroke="black"
       stroke-width="10"
     />
     <rect
       x="215"
       y="15"
       width="100"
       height="100"
       fill="gray"
       stroke="black"
       stroke-width="10"
     />

     <!-- MIDDLE ROW -->
     <rect
       x="15"
       y="115"
       width="100"
       height="100"
       fill="yellow"
       stroke="black"
       stroke-width="10"
     />
     <rect
       x="115"
       y="115"
       width="100"
       height="100"
       fill="yellow"
       stroke="black"
       stroke-width="10"
     />
     <rect
       x="215"
       y="115"
       width="100"
       height="100"
       fill="yellow"
       stroke="black"
       stroke-width="10"
     />

     <!-- BOTTOM ROW -->
     <rect
       x="15"
       y="215"
       width="100"
       height="100"
       fill="gray"
       stroke="black"
       stroke-width="10"
     />
     <rect
       x="115"
       y="215"
       width="100"
       height="100"
       fill="yellow"
       stroke="black"
       stroke-width="10"
     />
     <rect
       x="215"
       y="215"
       width="100"
       height="100"
       fill="gray"
       stroke="black"
       stroke-width="10"
     />

     <!-- STRIKES -->

     <!-- TOP -->
     <rect
       x="20"
       y="5"
       width="90"
       height="10"
       fill="yellow"
     />
     <rect
       x="120"
       y="5"
       width="90"
       height="10"
       fill="black"
     />
     <rect
       x="220"
       y="5"
       width="90"
       height="10"
       fill="yellow"
     />

     <!-- RIGHT -->
     <rect
       x="315"
       y="20"
       width="10"
       height="90"
       fill="black"
     />
     <rect
       x="315"
       y="120"
       width="10"
       height="90"
       fill="black"
     />
     <rect
       x="315"
       y="220"
       width="10"
       height="90"
       fill="black"
     />

     <!-- BOTTOM -->
     <rect
       x="20"
       y="315"
       width="90"
       height="10"
       fill="yellow"
     />
     <rect
       x="120"
       y="315"
       width="90"
       height="10"
       fill="black"
     />
     <rect
       x="220"
       y="315"
       width="90"
       height="10"
       fill="yellow"
     />

     <!-- LEFT -->
     <rect
       x="5"
       y="20"
       width="10"
       height="90"
       fill="black"
     />
     <rect
       x="5"
       y="120"
       width="10"
       height="90"
       fill="black"
     />
     <rect
       x="5"
       y="220"
       width="10"
       height="90"
       fill="black"
     />
    </svg>
